<?xml version="1.0" encoding="utf-8"?>
<!-- Generator: Adobe Illustrator 21.0.2, SVG Export Plug-In . SVG Version: 6.00 Build 0)  -->
<svg version="1.1" id="Capa_1" xmlns="http://www.w3.org/2000/svg" xmlns:xlink="http://www.w3.org/1999/xlink" x="0px" y="0px"
	 viewBox="0 0 1220.4 558.9" style="enable-background:new 0 0 1220.4 558.9;" xml:space="preserve">
<style type="text/css">
	.st0{opacity:0.3;}
	.st1{fill-rule:evenodd;clip-rule:evenodd;fill:#FFFFFF;}
	.st2{fill:#FFFFFF;}
</style>
<g>
	<g>
		<g class="st0">
			<path class="st1" d="M526.2,77.8c53.7,21.3,122.3,47.9,175.9,69.4c66.7,26.7,133.2,54,200.1,80.3c11.2,4.4,14.5,8.6,12,21.4
				c-17.6,88.1-34,176.4-50.8,264.7c-0.2,0.9-1,1.6-2.4,3.8c-23-21.6-45.8-43-68.5-64.4c-91.9-86.5-183.6-173.2-275.9-259.3
				c-32.9-30.6-69.3-56.4-114.1-67.3c-16.9-4.1-33.9-5.4-49.6,3.8c-5.4,3.1-9.4,1.1-14-0.8c-28.4-11.5-56.8-23.3-85.4-34.3
				c-9.2-3.6-9.3-6-2.2-12.4c42.2-38,92.8-45.8,147.2-39.3C445.5,49.2,482.1,60.4,526.2,77.8"/>
			<path class="st1" d="M280.1,125.2c-3.3,30.2,0.7,60.2-0.5,90.2c-0.6,14.8-3.6,28.4-17,37.5c-15.3,10.4-34.4,9.1-48.1-3.8
				c-13.1-12.3-15.7-30.6-6.4-46.2c7.4-12.5,18.4-21.9,28.7-31.9C251.7,156.5,265.7,141.2,280.1,125.2z M265.9,160.4
				c-10.7,11-19.8,20.5-29.1,29.9c-6.7,6.8-8.8,14.4-3.7,22.8c4.3,7.2,11.1,10.1,19.2,8c9.7-2.5,13.1-9.9,13.2-19.1
				C265.7,188.9,265.8,175.7,265.9,160.4z"/>
		</g>
		<g>
			<path class="st1" d="M196.6,479.4"/>
			<g>
				<path class="st2" d="M236.7,265.2h-0.4l-22,115.6l-56.3-0.1l-21.8-115.7h-0.4l-0.1,115.7l-52,0l0.1-161.9l85.3,0.1l16.9,96.4
					h0.4l17.1-96.4l85.3,0.1L288.6,381l-52-0.1L236.7,265.2z"/>
				<path class="st2" d="M345.2,219.2l79.7,0.1l49.7,161.9l-63.6-0.1l-6-26l-44.5,0l-6.2,26l-58.8-0.1L345.2,219.2z M396,315.6
					l-12.2-61h-0.4l-13.6,61L396,315.6z"/>
				<path class="st2" d="M481.6,219.3l72.8,0.1c62.1,0.1,81.8,34.8,81.7,82.8c0,48.9-30.6,79.1-78.2,79l-76.5-0.1L481.6,219.3z
					 M541.6,344.4l6,0c9.9,0,15.7-3.8,19.6-10.3c4.1-6.7,5.4-18.2,5.4-33.8c0-15.7-1.3-27.1-5.3-33.8c-3.9-6.5-9.7-10.3-19.5-10.3
					l-6,0L541.6,344.4z"/>
				<path class="st2" d="M652.5,219.5l117.9,0.1l0,42.1l-59.1-0.1l0,17.3l54.6,0.1l0,42.1l-54.6-0.1l0,18.2l61,0.1l0,42.1
					l-119.8-0.1L652.5,219.5z"/>
			</g>
			<g>
				<path class="st2" d="M1052.5,439.2c1.6,0,3-1.4,3-3.1c0-1.3-0.5-2.2-1.5-2.6c-2.1-0.8-1.6-0.6-3.7-1.4c-2.2-0.8-4.2-2.3-5.6-4.3
					c-0.8-1.1-1.2-2.6-1.2-4.3c0-2.6,0.9-4.8,2.7-6.6c1.8-1.8,3.9-2.8,6.4-2.8c2.5,0,4.6,0.9,6.3,2.8c1.8,1.8,2.7,4.1,2.7,6.6h-6
					c0-1.7-1.4-3.1-3-3.1c-1.6,0-3,1.4-3,3.1c0,1.1,0.4,2,1.3,2.6c1.8,1.2,1.6,1,3.7,1.6c2.3,0.7,4.3,2.2,5.8,4.1
					c0.8,1.1,1.2,2.6,1.2,4.3c0,2.6-0.9,4.8-2.6,6.6c-1.8,1.9-3.9,2.8-6.3,2.8c-2.5,0-4.6-0.9-6.4-2.8c-1.8-1.8-2.7-4-2.7-6.6h6
					C1049.5,437.9,1050.8,439.3,1052.5,439.2L1052.5,439.2z"/>
				<path class="st2" d="M1067.6,438.2c2.1,0,3.8,1.8,3.8,3.9c0,2.2-1.7,3.9-3.8,3.9c-2.1,0-3.8-1.8-3.8-3.9
					C1063.8,440,1065.5,438.2,1067.6,438.2z"/>
				<path class="st2" d="M1081.7,440.8l-1.9,4.5h-1h-0.2h-3.9h-1.3l13.4-31.4l13.5,31.4h-1.3h-3.9h-0.3h-1l-1.9-4.5l-0.1-0.2h-10.1
					L1081.7,440.8z M1089.5,435.2l-2.6-6.4l-2.6,6.4H1089.5z"/>
				<path class="st2" d="M1106,438.2c2.1,0,3.8,1.8,3.8,3.9c0,2.2-1.7,3.9-3.8,3.9c-2.1,0-3.8-1.8-3.8-3.9
					C1102.2,440,1103.9,438.2,1106,438.2z"/>
				<path class="st2" d="M1135.9,438.2c2.1,0,3.8,1.8,3.8,3.9c0,2.2-1.7,3.9-3.8,3.9s-3.8-1.8-3.8-3.9
					C1132.1,440,1133.8,438.2,1135.9,438.2z"/>
				<path class="st2" d="M1121.3,439.2c1.6,0,3-1.4,3-3.1c0-1.3-0.5-2.2-1.5-2.6c-2.1-0.8-1.6-0.6-3.7-1.4c-2.2-0.8-4.2-2.3-5.6-4.3
					c-0.8-1.1-1.2-2.6-1.2-4.3c0-2.6,0.9-4.8,2.6-6.6c1.8-1.8,3.9-2.8,6.4-2.8c2.5,0,4.6,0.9,6.3,2.8c1.8,1.8,2.6,4.1,2.6,6.6h-6
					c0-1.7-1.4-3.1-3-3.1c-1.6,0-3,1.4-3,3.1c0,1.1,0.4,2,1.3,2.6c1.8,1.2,1.6,1,3.7,1.6c2.3,0.7,4.3,2.2,5.8,4.1
					c0.8,1.1,1.3,2.6,1.3,4.3c0,2.6-0.9,4.8-2.7,6.6c-1.8,1.9-3.9,2.8-6.3,2.8c-2.5,0-4.6-0.9-6.4-2.8c-1.8-1.8-2.7-4-2.7-6.6h6
					C1118.3,437.9,1119.7,439.3,1121.3,439.2L1121.3,439.2z"/>
			</g>
			<g>
				<path class="st2" d="M83.8,175.3l13.2,0c11.2,0,14.8,6.8,14.8,16.3c0,9.6-5.5,15.5-14.2,15.5l-13.8,0L83.8,175.3z M94.6,199.9
					l1.1,0c1.8,0,2.8-0.8,3.5-2c0.7-1.3,1-3.6,1-6.6c0-3.1-0.2-5.3-0.9-6.6c-0.7-1.3-1.8-2-3.5-2l-1.1,0L94.6,199.9z"/>
				<path class="st2" d="M114.8,175.4l11.1,0l0,31.8l-11.1,0L114.8,175.4z"/>
				<path class="st2" d="M144.4,184.4c0-2-1-2.7-2.5-2.7c-1.8,0-2.6,0.9-2.6,1.8c0,1.2,0.7,1.6,1.8,2c2.1,0.7,6.1,1.6,8.9,2.9
					c3.5,1.7,5.1,4.5,5.1,8.4c0,7.8-5.6,11-13.5,11c-6.8,0-13-2.4-13-10.7l10.7,0c0,0.9,0.2,1.8,0.6,2.4c0.4,0.6,1.1,1,2.2,1
					c1.6,0,2.7-1.2,2.7-2.6c0-1.2-0.8-1.8-1.9-2.2l-7.9-2.6c-4.3-1.5-5.8-4.4-5.8-8.5c0-6.6,4.7-10.3,12.9-10.3
					c7,0,12.3,2.5,12.2,9.9L144.4,184.4z"/>
				<path class="st2" d="M163,184l-6.9,0l0-8.5l25,0l0,8.5l-6.9,0l0,23.3l-11.1,0L163,184z"/>
				<path class="st2" d="M183.1,175.5l16.6,0c6,0,9.6,2.1,9.6,8.1c0,3.7-1.4,6.4-5.6,7.6v0.1c2.7,0.3,4.2,1.6,4.7,4.1
					c0.6,2.7,0.5,7.2,1.8,12l-10.9,0c-0.7-2.4-1-6.4-1.4-9.1c-0.2-1.6-0.9-2.2-2.7-2.2l-1.3,0l0,11.3l-10.9,0L183.1,175.5z
					 M194.9,188.7c2.1,0,3.7-0.8,3.7-3.2c0-2.3-1.4-2.8-3.6-2.8h-1l0,6H194.9z"/>
				<path class="st2" d="M212.6,175.5l11.1,0l0,31.8l-11.1,0L212.6,175.5z"/>
				<path class="st2" d="M227.7,175.5l16.7,0c6.1,0,9,2.9,9,8.3c0,3.1-1.1,5.8-5.3,6.9v0.1c4.3,0.7,6,4.1,6,7.4
					c0,5.5-3.8,9.1-10.8,9.1l-15.7,0L227.7,175.5z M238.1,182.3l0,6h1.5c2.6,0,3.4-1.3,3.4-3.2c0-2.1-1.2-2.9-3.4-2.9H238.1z
					 M238.1,200.6l1.6,0c2.7,0,3.8-1,3.8-3.4c0-1.9-1.3-2.9-3.9-2.9l-1.4,0L238.1,200.6z"/>
				<path class="st2" d="M283.7,196.7c0,7.7-4.9,11.5-13.4,11.5c-8.5,0-13.3-3.9-13.3-11.5l0-21.1l11.1,0l0,20.6
					c0,2.5,1,3.5,2.2,3.5c1.2,0,2.2-1,2.2-3.5l0-20.6l11.1,0L283.7,196.7z"/>
				<path class="st2" d="M314,195.7c0,4.4-1.6,7.5-4,9.6c-2.4,2-5.7,3-9.2,3c-9.8,0-14.4-6.8-14.4-16.9c-0.3-9.9,5-16.6,14.5-16.6
					c7.1,0,13.1,3.3,13.1,12.6l-10.2,0c-0.1-3.6-1.3-4.3-2.7-4.3c-2.9,0-3.2,3.3-3.2,8.5c0,4.8,0.2,8.5,3,8.5c1.4,0,2.4-1,2.6-4.3
					L314,195.7z"/>
				<path class="st2" d="M316.9,175.7l11.1,0l0,31.8l-11.1,0L316.9,175.7z"/>
				<path class="st2" d="M345.5,174.9c9.7,0,14.5,6.8,14.5,16.8c0,9.9-4.9,16.7-14.5,16.7c-9.7,0-14.5-6.8-14.5-16.7
					C331,181.7,335.8,174.9,345.5,174.9z M345.5,200.1c1.7,0,3-1.1,3-8.5c0-7.2-1.2-8.5-3-8.5c-1.8,0-3,1.3-3,8.5
					C342.5,198.9,343.8,200.1,345.5,200.1z"/>
				<path class="st2" d="M363,175.7l13.3,0l5.9,19.3h0.1l0-19.2l9,0l-0.1,31.8l-13.3,0l-5.9-19.4H372l0,19.4l-9,0L363,175.7z"/>
				<path class="st2" d="M395.4,175.8l21.4,0l0,8.3l-10.7,0l0,3.4l9.9,0l0,8.3l-9.9,0v3.6l11,0l0,8.3l-21.7,0L395.4,175.8z"/>
				<path class="st2" d="M434.4,184.9c0-2-1-2.7-2.4-2.7c-1.8,0-2.6,0.9-2.6,1.8c0,1.1,0.7,1.6,1.8,2c2.1,0.7,6.1,1.6,8.9,3
					c3.5,1.7,5.1,4.5,5.1,8.4c0,7.8-5.6,11-13.5,11c-6.8,0-13-2.4-13-10.7l10.7,0c0,0.9,0.2,1.8,0.6,2.4c0.4,0.6,1.1,1,2.2,1
					c1.6,0,2.7-1.2,2.7-2.6c0-1.2-0.8-1.8-1.9-2.2l-7.9-2.7c-4.3-1.5-5.8-4.4-5.8-8.5c0-6.6,4.7-10.3,12.9-10.3
					c7,0,12.3,2.5,12.2,9.9L434.4,184.9z"/>
			</g>
			<g>
				<path class="st1" d="M984.8,251.1c17.8-9.6,35.6-19.2,53.4-29c2.3-1.2,3.5-1.2,5.1,1c26.7,37.4,34.1,78.2,21,122.3
					c-10.8,36.6-33.5,64.5-67,82.7c-31.3,17-65.6,24.7-100.4,16.8c-39.5-9-62.8-22.3-83.1-57.5c-1.5-2.7-11-20.7-8.9-21
					c13.5-1.6,26.4-4.4,39.9-5.9c8.8-1,17.2,0.3,25.4,3.9c6.8,2.9,12,7.7,18.6,11.1c20.2,10.4,42.7,13.8,65.3,8
					c14.8-3.8,26.4-12.7,36.5-23.6c11.1-12,18.4-26.1,22.5-41.8c0.2-0.8,0.4-1.6,0.5-2.4c0.3-1.5,0.2-2.9-1-3.9
					c-1.4-1.1-2.7-0.3-3.9,0.4c-16.1,8.7-33.1,19.5-49.2,28.3c-1.8,1-3.1,1-4.8-0.3c-8-6.4-16.1-12.7-24.2-19
					c-1.2-0.9-1.8-1.9-1.8-3.5c-0.2-10.8-0.4-21.7-0.8-32.5c-0.1-1.9,1.2-2.3,2.4-3C948.1,272.6,966.9,260.8,984.8,251.1z"/>
				<path class="st1" d="M857.7,188.2c28.2-18,61.2-25.7,98.8-18.5c16.2,3.1,26.8,6,41.9,14.9c2,1.2,5.5,2.3,3.6,5.4
					c-11,15.2-21.5,31.4-32.4,46.7c-1.2,1.6-10.6-1.4-12.3-2.1c-33.9-9.4-65.4,0.7-87.3,31c-4.5,6.3-8.6,12.9-13.3,19
					c-6.5,8.5-14.6,14.2-25.6,16.2c-13.1,2.4-26.1,5.8-39.2,8.9c-2.2,0.5-2.8,0.2-2.7-2.1c1-32.9,11.5-62.2,32.7-87.6
					C833.5,206.2,842.4,198.4,857.7,188.2z"/>
			</g>
		</g>
	</g>
	<g>
		<path class="st2" d="M148,432.8v-41.2h5.8v35.9h19.6v5.3H148z"/>
		<path class="st2" d="M190.9,430.6c-1.4,1-2.7,1.7-3.9,2.1c-1.2,0.4-2.5,0.6-4,0.6c-2.4,0-4.3-0.6-5.7-1.8
			c-1.4-1.2-2.1-2.8-2.1-4.8c0-1.9,0.8-3.6,2.2-5.1c1.5-1.4,3.7-2.7,6.7-3.7l6.4-2.1c0-0.2,0-0.3,0-0.5c0-0.2,0-0.4,0-0.7
			c0-1.6-0.4-2.8-1.2-3.5c-0.8-0.7-2.1-1.1-3.9-1.1c-1.5,0-3.1,0.3-4.7,1c-1.6,0.6-3.2,1.6-4.8,2.8v-5.4c1.4-1.1,3-2,4.7-2.6
			c1.7-0.6,3.6-0.9,5.5-0.9c3.5,0,6,0.8,7.6,2.3c1.6,1.5,2.4,4,2.4,7.5v11.5c0,1,0.1,1.6,0.2,2c0.2,0.4,0.4,0.6,0.8,0.6
			c0.3,0,0.7-0.1,1-0.3c0.4-0.2,1-0.6,1.8-1.2v3.3c-1,0.8-2,1.5-3,1.9c-1,0.4-2,0.6-3.1,0.6c-1,0-1.8-0.2-2.3-0.6
			C191.2,432.2,190.9,431.5,190.9,430.6z M190.7,427.3v-8c-3.6,1.1-6.2,2.2-7.6,3.1c-1.4,1-2.1,2.1-2.1,3.4c0,1.1,0.4,2,1.1,2.6
			c0.7,0.6,1.7,0.9,3,0.9c1,0,1.9-0.2,2.8-0.5C188.9,428.5,189.8,428,190.7,427.3z"/>
		<path class="st2" d="M219.6,432.8v-41.2h24.7v5.2h-18.9v12.5h18.4v5.3h-18.4v12.8h19.5v5.3H219.6z"/>
		<path class="st2" d="M247.7,432.8l11-14l-10.7-13.2h6.7l7.3,9.2l7.2-9.2h6.7l-10.4,13l11.4,14.2h-6.6l-8.1-10l-7.8,10H247.7z"/>
		<path class="st2" d="M301.3,426.4v5.5c-1.4,0.5-2.7,0.9-4,1.1c-1.3,0.2-2.6,0.4-3.9,0.4c-4.4,0-8.1-1.3-10.9-4
			c-2.8-2.7-4.3-6.1-4.3-10.2c0-4,1.4-7.4,4.3-10.1c2.8-2.7,6.4-4.1,10.7-4.1c1.3,0,2.6,0.1,3.9,0.4c1.3,0.3,2.5,0.7,3.8,1.3v5.8
			c-1.3-0.8-2.5-1.3-3.7-1.7c-1.2-0.4-2.5-0.5-3.8-0.5c-2.8,0-5.1,0.8-6.8,2.5c-1.8,1.7-2.6,3.8-2.6,6.4c0,2.7,0.9,4.8,2.7,6.5
			c1.8,1.7,4.1,2.5,7,2.5c1.3,0,2.6-0.1,3.9-0.4C298.8,427.5,300.1,427,301.3,426.4z"/>
		<path class="st2" d="M330.4,429.9c-1.8,1.2-3.7,2-5.6,2.6c-1.9,0.6-3.9,0.9-5.9,0.9c-4.3,0-7.7-1.3-10.3-4
			c-2.6-2.7-3.8-6.2-3.8-10.6c0-4.1,1.2-7.4,3.7-9.9c2.5-2.5,5.7-3.8,9.6-3.8c3.9,0,7,1.3,9.3,3.9c2.3,2.6,3.4,6,3.4,10.4v0.8h-20.4
			c0.2,2.6,1,4.6,2.5,6c1.5,1.4,3.6,2.2,6.2,2.2c1.7,0,3.5-0.3,5.4-1c1.9-0.6,3.8-1.6,5.8-2.9V429.9z M310.5,416.3l14.4,0
			c-0.2-2-0.9-3.5-2.1-4.7c-1.3-1.2-2.8-1.8-4.7-1.8c-2.1,0-3.8,0.6-5,1.7C311.8,412.5,310.9,414.2,310.5,416.3z"/>
		<path class="st2" d="M336.1,432.8v-41.2h5.4v41.2H336.1z"/>
		<path class="st2" d="M372.5,429.9c-1.8,1.2-3.7,2-5.6,2.6c-1.9,0.6-3.9,0.9-5.9,0.9c-4.3,0-7.7-1.3-10.3-4
			c-2.6-2.7-3.8-6.2-3.8-10.6c0-4.1,1.2-7.4,3.7-9.9c2.5-2.5,5.7-3.8,9.6-3.8c3.9,0,7,1.3,9.3,3.9c2.3,2.6,3.4,6,3.4,10.4v0.8h-20.3
			c0.1,2.6,1,4.6,2.5,6c1.5,1.4,3.6,2.2,6.2,2.2c1.7,0,3.5-0.3,5.4-1c1.9-0.6,3.8-1.6,5.8-2.9V429.9z M352.7,416.3l14.4,0
			c-0.2-2-0.9-3.5-2.1-4.7c-1.3-1.2-2.8-1.8-4.7-1.8c-2.1,0-3.8,0.6-5,1.7C353.9,412.5,353,414.2,352.7,416.3z"/>
		<path class="st2" d="M378.1,432.8v-27.2h5.4v3.3c1.3-1.3,2.7-2.3,4-2.8c1.3-0.6,2.8-0.9,4.3-0.9c2.9,0,5.3,0.8,7,2.6
			c1.7,1.7,2.5,4,2.5,7v18H396v-16.6c0-2.2-0.5-3.8-1.4-4.9c-0.9-1.1-2.4-1.6-4.3-1.6c-1.4,0-2.6,0.3-3.7,0.8
			c-1,0.5-2.1,1.4-3.1,2.7v19.6H378.1z"/>
		<path class="st2" d="M429.4,426.4v5.5c-1.4,0.5-2.7,0.9-4,1.1c-1.3,0.2-2.6,0.4-3.9,0.4c-4.4,0-8.1-1.3-10.9-4
			c-2.9-2.7-4.3-6.1-4.3-10.2c0-4,1.4-7.4,4.3-10.1c2.8-2.7,6.4-4.1,10.7-4.1c1.3,0,2.6,0.1,3.9,0.4c1.3,0.3,2.5,0.7,3.8,1.3v5.8
			c-1.3-0.8-2.5-1.3-3.7-1.7c-1.2-0.4-2.5-0.5-3.8-0.5c-2.8,0-5.1,0.8-6.8,2.5c-1.8,1.7-2.6,3.8-2.6,6.4c0,2.7,0.9,4.8,2.7,6.5
			c1.8,1.7,4.1,2.5,7,2.5c1.3,0,2.6-0.1,3.9-0.4C426.9,427.5,428.2,427,429.4,426.4z"/>
		<path class="st2" d="M434.5,397.6c0-0.9,0.3-1.6,0.9-2.2c0.6-0.6,1.3-0.9,2.2-0.9c0.9,0,1.6,0.3,2.2,0.9c0.6,0.6,0.9,1.3,0.9,2.2
			c0,0.9-0.3,1.6-0.9,2.2c-0.6,0.6-1.3,0.9-2.2,0.9c-0.9,0-1.6-0.3-2.2-0.9C434.8,399.2,434.5,398.5,434.5,397.6z M434.8,432.8
			v-27.2h5.4v27.2H434.8z"/>
		<path class="st2" d="M460.9,430.6c-1.4,1-2.7,1.7-3.9,2.1c-1.2,0.4-2.5,0.6-4,0.6c-2.4,0-4.3-0.6-5.7-1.8
			c-1.4-1.2-2.1-2.8-2.1-4.8c0-1.9,0.7-3.6,2.2-5.1c1.5-1.4,3.7-2.7,6.7-3.7l6.4-2.1c0-0.2,0-0.3,0-0.5c0-0.2,0-0.4,0-0.7
			c0-1.6-0.4-2.8-1.2-3.5c-0.8-0.7-2.1-1.1-3.9-1.1c-1.5,0-3.1,0.3-4.7,1c-1.6,0.6-3.2,1.6-4.8,2.8v-5.4c1.4-1.1,3-2,4.7-2.6
			c1.7-0.6,3.6-0.9,5.5-0.9c3.5,0,6,0.8,7.6,2.3c1.6,1.5,2.4,4,2.4,7.5v11.5c0,1,0.1,1.6,0.3,2c0.2,0.4,0.4,0.6,0.8,0.6
			c0.3,0,0.7-0.1,1-0.3c0.4-0.2,1-0.6,1.8-1.2v3.3c-1,0.8-2,1.5-3,1.9c-1,0.4-2,0.6-3.1,0.6c-1,0-1.8-0.2-2.3-0.6
			C461.3,432.2,461,431.5,460.9,430.6z M460.7,427.3v-8c-3.6,1.1-6.2,2.2-7.6,3.1c-1.4,1-2.1,2.1-2.1,3.4c0,1.1,0.4,2,1.1,2.6
			c0.7,0.6,1.7,0.9,3,0.9c1,0,1.9-0.2,2.8-0.5C458.9,428.5,459.8,428,460.7,427.3z"/>
		<path class="st2" d="M512.5,429.9c-1.8,1.2-3.7,2-5.6,2.6c-1.9,0.6-3.9,0.9-5.9,0.9c-4.3,0-7.7-1.3-10.3-4
			c-2.6-2.7-3.8-6.2-3.8-10.6c0-4.1,1.2-7.4,3.7-9.9c2.5-2.5,5.7-3.8,9.6-3.8c3.9,0,7,1.3,9.3,3.9c2.3,2.6,3.4,6,3.4,10.4v0.8h-20.4
			c0.2,2.6,1,4.6,2.5,6c1.5,1.4,3.6,2.2,6.2,2.2c1.7,0,3.5-0.3,5.4-1c1.9-0.6,3.8-1.6,5.8-2.9V429.9z M492.6,416.3l14.4,0
			c-0.2-2-0.9-3.5-2.1-4.7c-1.3-1.2-2.8-1.8-4.7-1.8c-2.1,0-3.8,0.6-5,1.7C493.8,412.5,493,414.2,492.6,416.3z"/>
		<path class="st2" d="M518,432.8v-27.2h5.4v3.3c1.4-1.3,2.7-2.3,4-2.8c1.3-0.6,2.8-0.9,4.3-0.9c2.9,0,5.3,0.8,7,2.6
			c1.7,1.7,2.5,4,2.5,7v18h-5.4v-16.6c0-2.2-0.5-3.8-1.4-4.9c-0.9-1.1-2.4-1.6-4.3-1.6c-1.4,0-2.6,0.3-3.7,0.8
			c-1,0.5-2.1,1.4-3.1,2.7v19.6H518z"/>
		<path class="st2" d="M564.3,432.8v-41.2h23.4v5.2h-17.6v12.2h17.1v5.3h-17.1v18.5H564.3z"/>
		<path class="st2" d="M617.5,429.9c-1.8,1.2-3.7,2-5.6,2.6c-1.9,0.6-3.9,0.9-5.9,0.9c-4.3,0-7.7-1.3-10.3-4
			c-2.6-2.7-3.8-6.2-3.8-10.6c0-4.1,1.2-7.4,3.7-9.9c2.5-2.5,5.7-3.8,9.6-3.8c3.9,0,7,1.3,9.3,3.9c2.3,2.6,3.4,6,3.4,10.4v0.8h-20.4
			c0.2,2.6,1,4.6,2.5,6c1.5,1.4,3.6,2.2,6.1,2.2c1.7,0,3.5-0.3,5.4-1c1.9-0.6,3.8-1.6,5.8-2.9V429.9z M597.6,416.3l14.4,0
			c-0.2-2-0.9-3.5-2.1-4.7c-1.3-1.2-2.8-1.8-4.7-1.8c-2.1,0-3.8,0.6-5,1.7C598.8,412.5,598,414.2,597.6,416.3z"/>
		<path class="st2" d="M623.1,432.8v-27.2h5.4v5.9c1.5-2.4,2.9-4,4.1-5c1.2-0.9,2.5-1.4,3.9-1.4c1,0,2,0.2,3,0.7
			c1,0.4,2.1,1.1,3.2,2l-2.9,4.8c-0.9-0.8-1.7-1.3-2.5-1.7c-0.8-0.3-1.7-0.5-2.5-0.5c-1.5,0-2.8,0.6-3.9,1.9c-1.1,1.2-1.9,3-2.4,5.2
			v15.4H623.1z"/>
		<path class="st2" d="M645.6,432.8v-27.2h5.4v5.9c1.5-2.4,2.9-4,4.1-5c1.2-0.9,2.5-1.4,3.9-1.4c1,0,2,0.2,3,0.7
			c1,0.4,2.1,1.1,3.2,2l-2.9,4.8c-0.9-0.8-1.7-1.3-2.5-1.7c-0.8-0.3-1.6-0.5-2.5-0.5c-1.5,0-2.7,0.6-3.9,1.9c-1.1,1.2-1.9,3-2.4,5.2
			v15.4H645.6z"/>
		<path class="st2" d="M692,429.9c-1.8,1.2-3.7,2-5.6,2.6c-1.9,0.6-3.9,0.9-5.9,0.9c-4.3,0-7.7-1.3-10.3-4
			c-2.6-2.7-3.8-6.2-3.8-10.6c0-4.1,1.2-7.4,3.7-9.9c2.5-2.5,5.7-3.8,9.6-3.8c3.9,0,7,1.3,9.3,3.9c2.3,2.6,3.4,6,3.4,10.4v0.8h-20.4
			c0.2,2.6,1,4.6,2.5,6c1.5,1.4,3.6,2.2,6.1,2.2c1.7,0,3.5-0.3,5.4-1c1.9-0.6,3.8-1.6,5.8-2.9V429.9z M672.2,416.3l14.4,0
			c-0.2-2-0.9-3.5-2.2-4.7c-1.3-1.2-2.8-1.8-4.7-1.8c-2.1,0-3.8,0.6-5,1.7C673.4,412.5,672.6,414.2,672.2,416.3z"/>
		<path class="st2" d="M712.6,432c-0.8,0.5-1.7,0.8-2.7,1.1c-1,0.2-2,0.3-3.1,0.3c-3.1,0-5.2-0.7-6.5-2.2c-1.2-1.4-1.9-4.1-1.9-7.9
			v-12.9h-4.6v-0.5l9.5-10.5h0.6v6.3h8.5v4.7h-8.5v12.5c0,2.3,0.3,3.7,0.8,4.4c0.6,0.7,1.6,1,3.1,1c0.8,0,1.6-0.1,2.4-0.3
			c0.8-0.2,1.6-0.6,2.3-1V432z"/>
		<path class="st2" d="M740.8,429.9c-1.8,1.2-3.7,2-5.6,2.6c-1.9,0.6-3.9,0.9-5.9,0.9c-4.3,0-7.7-1.3-10.3-4
			c-2.6-2.7-3.8-6.2-3.8-10.6c0-4.1,1.2-7.4,3.7-9.9c2.5-2.5,5.7-3.8,9.6-3.8c3.9,0,7,1.3,9.3,3.9c2.3,2.6,3.5,6,3.5,10.4v0.8H721
			c0.2,2.6,1,4.6,2.5,6c1.5,1.4,3.6,2.2,6.2,2.2c1.7,0,3.5-0.3,5.4-1c1.9-0.6,3.8-1.6,5.8-2.9V429.9z M721,416.3l14.4,0
			c-0.2-2-0.9-3.5-2.2-4.7c-1.3-1.2-2.8-1.8-4.7-1.8c-2.1,0-3.8,0.6-5,1.7C722.2,412.5,721.3,414.2,721,416.3z"/>
		<path class="st2" d="M746.4,432.8v-27.2h5.4v5.9c1.5-2.4,2.9-4,4.1-5c1.2-0.9,2.5-1.4,3.9-1.4c1,0,2,0.2,3,0.7
			c1,0.4,2.1,1.1,3.2,2l-2.9,4.8c-0.9-0.8-1.7-1.3-2.5-1.7c-0.8-0.3-1.6-0.5-2.5-0.5c-1.5,0-2.8,0.6-3.9,1.9c-1.1,1.2-1.9,3-2.4,5.2
			v15.4H746.4z"/>
		<path class="st2" d="M767.9,401.8l6.1-10.2h5.2l-8.3,10.2H767.9z M769.2,432.8v-27.2h5.4v27.2H769.2z"/>
		<path class="st2" d="M795.2,430.6c-1.4,1-2.7,1.7-3.9,2.1c-1.2,0.4-2.6,0.6-4,0.6c-2.4,0-4.3-0.6-5.7-1.8
			c-1.4-1.2-2.1-2.8-2.1-4.8c0-1.9,0.7-3.6,2.2-5.1c1.5-1.4,3.7-2.7,6.7-3.7l6.4-2.1c0-0.2,0-0.3,0-0.5c0-0.2,0-0.4,0-0.7
			c0-1.6-0.4-2.8-1.2-3.5c-0.8-0.7-2.1-1.1-3.9-1.1c-1.5,0-3.1,0.3-4.7,1c-1.6,0.6-3.2,1.6-4.8,2.8v-5.4c1.4-1.1,3-2,4.7-2.6
			c1.7-0.6,3.6-0.9,5.5-0.9c3.5,0,6,0.8,7.6,2.3c1.6,1.5,2.4,4,2.4,7.5v11.5c0,1,0.1,1.6,0.2,2c0.2,0.4,0.4,0.6,0.8,0.6
			c0.3,0,0.7-0.1,1-0.3c0.4-0.2,1-0.6,1.8-1.2v3.3c-1,0.8-2,1.5-3,1.9c-1,0.4-2,0.6-3.1,0.6c-1,0-1.8-0.2-2.3-0.6
			C795.6,432.2,795.3,431.5,795.2,430.6z M795,427.3v-8c-3.6,1.1-6.2,2.2-7.5,3.1c-1.4,1-2.1,2.1-2.1,3.4c0,1.1,0.4,2,1.1,2.6
			c0.7,0.6,1.7,0.9,3,0.9c1,0,1.9-0.2,2.8-0.5C793.3,428.5,794.2,428,795,427.3z"/>
	</g>
</g>
</svg>
